<svg xmlns="http://www.w3.org/2000/svg" width="24" height="24" fill="none" viewBox="0 0 24 24"><path fill="#fff" d="M17.05 12.536C17.0301 10.7372 17.9332 9.49372 19.7593 8.65781C18.7997 7.28191 17.3253 6.56292 15.3567 6.50097C13.4941 6.34 11.8225 7.5685 11.0854 7.5685C10.3082 7.5685 8.89509 6.55111 7.4307 6.55111C4.95759 6.58206 2.25 8.65781 2.25 12.8955C2.25 14.0031 2.43001 15.1507 2.79004 16.3383C3.28307 18.0099 5.52258 22.8936 7.86101 22.8326C9.14142 22.803 10.0645 21.9262 11.7361 21.9262C13.3577 21.9262 14.2209 22.8326 15.6571 22.8326C17.2968 22.8012 19.3025 18.3594 19.7593 16.6779C16.8737 15.3815 17.05 12.6368 17.05 12.536ZM14.3471 4.75C15.8972 2.94485 15.747 1.25 15.747 1.25C14.3071 1.33497 12.7655 2.28333 11.9654 3.33731C11.0593 4.4843 10.6225 5.80137 10.7026 6.49007C11.2327 6.53184 11.7738 6.46071 12.2804 6.28227C12.9631 6.04337 13.5781 5.64761 14.0773 5.1299C14.1772 5.00768 14.2671 4.88096 14.3471 4.75Z"/></svg>